HIERARCHY
ROOT Pelvis
{
	OFFSET 0.000000 0.000000 0.000000
	CHANNELS 6 Xposition Yposition Zposition Xrotation Yrotation Zrotation
	JOINT LeftUpLeg_virtual
	{
		OFFSET 0.000000 0.000000 0.000000
		CHANNELS 3 Xrotation Yrotation Zrotation
		JOINT LeftUpLeg
		{
			OFFSET 18.735201 -5.666702 -4.541200
			CHANNELS 3 Xrotation Yrotation Zrotation
			JOINT LeftLeg
			{
				OFFSET -0.021200 -31.938179 0.493100
				CHANNELS 3 Xrotation Yrotation Zrotation
				JOINT LeftFoot
				{
					OFFSET 0.021200 -31.938179 -4.336299
					CHANNELS 3 Xrotation Yrotation Zrotation
					JOINT LeftToeBase
					{
						OFFSET 0.943001 -26.722000 15.023500
						CHANNELS 3 Xrotation Yrotation Zrotation
						End Site
						{
							OFFSET 0 0 0
						}
					}
				}
			}
		}
	}
	JOINT RightUpLeg_virtual
	{
		OFFSET 0.000000 0.000000 0.000000
		CHANNELS 3 Xrotation Yrotation Zrotation
		JOINT RightUpLeg
		{
			OFFSET -18.735201 -5.666702 -4.541200
			CHANNELS 3 Xrotation Yrotation Zrotation
			JOINT RightLeg
			{
				OFFSET 0.018946 -31.938133 0.493100
				CHANNELS 3 Xrotation Yrotation Zrotation
				JOINT RightFoot
				{
					OFFSET -0.018946 -31.938126 -4.336299
					CHANNELS 3 Xrotation Yrotation Zrotation
					JOINT RightToeBase
					{
						OFFSET -0.943001 -26.722004 15.023500
						CHANNELS 3 Xrotation Yrotation Zrotation
						End Site
						{
							OFFSET 0 0 0
						}
					}
				}
			}
		}
	}
	JOINT Hips_virtual
	{
		OFFSET 0.000000 0.000000 0.000000
		CHANNELS 3 Xrotation Yrotation Zrotation
		JOINT Hips
		{
			OFFSET -0.000000 -0.000000 -0.000000
			CHANNELS 3 Xrotation Yrotation Zrotation
			JOINT Spine
			{
				OFFSET 0.000000 10.199997 -0.299500
				CHANNELS 3 Xrotation Yrotation Zrotation
				JOINT Spine1
				{
					OFFSET 0.000000 11.900002 -1.516600
					CHANNELS 3 Xrotation Yrotation Zrotation
					JOINT Spine2
					{
						OFFSET 0.000000 13.600006 -2.842500
						CHANNELS 3 Xrotation Yrotation Zrotation
						JOINT Neck_virtual
						{
							OFFSET 0.000000 0.000000 0.000000
							CHANNELS 3 Xrotation Yrotation Zrotation
							JOINT Neck
							{
								OFFSET 0.000000 9.624100 -2.890100
								CHANNELS 3 Xrotation Yrotation Zrotation
								JOINT Head
								{
									OFFSET 0.000000 14.068802 -1.351900
									CHANNELS 3 Xrotation Yrotation Zrotation
									End Site
									{
										OFFSET 0 0 0
									}
								}
							}
						}
						JOINT LeftShoulder_virtual
						{
							OFFSET 0.000000 0.000000 0.000000
							CHANNELS 3 Xrotation Yrotation Zrotation
							JOINT LeftShoulder
							{
								OFFSET 15.263000 10.923401 -0.547700
								CHANNELS 3 Xrotation Yrotation Zrotation
								JOINT LeftArm
								{
									OFFSET 25.438599 -2.830597 -13.032500
									CHANNELS 3 Xrotation Yrotation Zrotation
									JOINT LeftForeArm
									{
										OFFSET 29.960503 0.000000 0.000000
										CHANNELS 3 Xrotation Yrotation Zrotation
										JOINT LeftHand
										{
											OFFSET 27.849251 0.000000 0.000000
											CHANNELS 3 Xrotation Yrotation Zrotation
											End Site
											{
												OFFSET 0 0 0
											}
										}
									}
								}
							}
						}
						JOINT RightShoulder_virtual
						{
							OFFSET 0.000000 0.000000 0.000000
							CHANNELS 3 Xrotation Yrotation Zrotation
							JOINT RightShoulder
							{
								OFFSET -15.263000 10.923401 -0.547700
								CHANNELS 3 Xrotation Yrotation Zrotation
								JOINT RightArm
								{
									OFFSET -25.438599 -2.830597 -13.032500
									CHANNELS 3 Xrotation Yrotation Zrotation
									JOINT RightForeArm
									{
										OFFSET -29.960503 0.000000 0.000000
										CHANNELS 3 Xrotation Yrotation Zrotation
										JOINT RightHand
										{
											OFFSET -27.849251 0.000000 0.000000
											CHANNELS 3 Xrotation Yrotation Zrotation
											End Site
											{
												OFFSET 0 0 0
											}
										}
									}
								}
							}
						}
					}
				}
			}
		}
	}
}
MOTION
Frames: 5
Frame Time: 0.03333333
-2.545394 87.593895 1.919514 0.000000 0.000000 0.000000 0.104964 -44.352612 -0.368852 -41.926461 -1.537766 14.018256 42.015632 -6.859242 -2.527936 -8.101227 -5.702209 -13.825987 0.000000 0.000000 0.000000 14.818789 -32.636392 3.343118 -14.238346 -15.753005 -17.422334 29.727961 12.592319 -4.789812 -23.178016 9.050177 11.412729 0.000000 0.000000 0.000000 4.795784 -5.963425 1.756839 -21.728517 -34.367388 -6.850396 14.949925 1.544173 0.740411 8.868406 0.456887 -0.401647 0.000000 0.000000 0.000000 11.446549 -3.488828 -0.728901 1.814779 -3.146974 -0.026173 0.000000 0.000000 0.000000 10.269860 1.931381 0.179546 1.768172 -4.913276 -6.265582 -7.451928 1.969721 -59.911257 -5.117333 -48.153452 -6.952537 0.000000 0.000000 0.000000 12.284345 2.508267 0.057103 2.682083 2.220385 10.499479 -1.986683 -6.026742 60.474324 -5.817995 52.183574 12.817469 0.000000 0.000000 0.000000 
-2.651793 87.633011 1.949105 0.000000 0.000000 0.000000 0.457366 -45.054445 -0.058708 -41.680540 -1.745831 14.160089 41.551401 -6.287535 -2.695003 -8.411651 -5.017370 -13.674875 0.000000 0.000000 0.000000 14.788531 -33.850247 3.481005 -14.655636 -16.061992 -17.607466 30.187664 12.967593 -4.968564 -22.914690 9.515749 11.440447 0.000000 0.000000 0.000000 4.298047 -7.443858 1.833850 -21.315718 -34.272510 -6.641985 14.844977 0.895875 0.819679 8.796028 0.104753 -0.363155 0.000000 0.000000 0.000000 11.320048 -3.873060 -0.676732 1.795306 -3.236530 -0.054013 0.000000 0.000000 0.000000 10.303022 1.417154 0.266207 1.767627 -5.874069 -6.487900 -7.753499 2.124173 -59.832942 -5.215140 -47.682589 -7.038004 0.000000 0.000000 0.000000 12.202918 2.060652 0.181614 2.822161 1.117733 10.503035 -1.391268 -6.283958 60.714856 -5.889710 53.157474 12.895848 0.000000 0.000000 0.000000 
-2.769906 87.676010 1.984358 0.000000 0.000000 0.000000 0.821722 -45.746322 0.256070 -41.431873 -1.947968 14.300034 41.088960 -5.708126 -2.858848 -8.725330 -4.327040 -13.518526 0.000000 0.000000 0.000000 14.755188 -35.035554 3.630303 -15.081570 -16.361993 -17.776703 30.651751 13.284090 -5.140424 -22.631524 9.932254 11.444452 0.000000 0.000000 0.000000 3.792396 -8.910001 1.895524 -20.883266 -34.173410 -6.393734 14.743525 0.257729 0.896139 8.730051 -0.239726 -0.329115 0.000000 0.000000 0.000000 11.191688 -4.252302 -0.633198 1.773224 -3.325180 -0.081434 0.000000 0.000000 0.000000 10.334054 0.919422 0.344104 1.763066 -6.798870 -6.701774 -8.044203 2.331765 -59.755331 -5.314875 -47.165564 -7.118979 0.000000 0.000000 0.000000 12.126934 1.620638 0.302103 2.967466 0.007372 10.519375 -0.784084 -6.594260 60.890235 -5.947894 54.047519 12.949780 0.000000 0.000000 0.000000 
-2.896372 87.724007 2.022066 0.000000 0.000000 0.000000 1.198843 -46.429270 0.574527 -41.179880 -2.143520 14.436846 40.632741 -5.122122 -3.019609 -9.039580 -3.632403 -13.357987 0.000000 0.000000 0.000000 14.721995 -36.192226 3.792941 -15.512635 -16.653767 -17.928553 31.115989 13.542472 -5.304466 -22.330542 10.299753 11.424832 0.000000 0.000000 0.000000 3.282376 -10.354882 1.941252 -20.438532 -34.068693 -6.114895 14.646992 -0.364925 0.971739 8.671387 -0.574162 -0.298295 0.000000 0.000000 0.000000 11.066688 -4.623260 -0.598156 1.750795 -3.412072 -0.108168 0.000000 0.000000 0.000000 10.362135 0.441420 0.413135 1.755102 -7.682018 -6.904459 -8.327181 2.588026 -59.681011 -5.419022 -46.613336 -7.197475 0.000000 0.000000 0.000000 12.057000 1.191818 0.417480 3.117313 -1.099417 10.547342 -0.165579 -6.951951 61.002120 -5.985219 54.841887 12.974218 0.000000 0.000000 0.000000 
-3.028229 87.777527 2.059466 0.000000 0.000000 0.000000 1.589348 -47.103689 0.896178 -40.924093 -2.332009 14.569712 40.187279 -4.530625 -3.177850 -9.351771 -2.934408 -13.194848 0.000000 0.000000 0.000000 14.691515 -37.322305 3.969554 -15.946456 -16.938270 -18.063409 31.576665 13.745353 -5.460171 -22.014352 10.619821 11.382470 0.000000 0.000000 0.000000 2.771370 -11.773974 1.970393 -19.993096 -33.960978 -5.820327 14.554670 -0.967190 1.047813 8.619671 -0.896362 -0.269762 0.000000 0.000000 0.000000 10.948833 -4.982247 -0.571062 1.729631 -3.495981 -0.133884 0.000000 0.000000 0.000000 10.386844 -0.014108 0.473753 1.744752 -8.518977 -7.092191 -8.603976 2.887064 -59.610701 -5.528429 -46.036230 -7.274043 0.000000 0.000000 0.000000 11.993276 0.777689 0.527054 3.270572 -2.190908 10.586601 0.463924 -7.348156 61.054446 -5.994702 55.532583 12.965230 0.000000 0.000000 0.000000 
